<?xml version="1.0" encoding="utf-8"?>
<!-- Generator: Adobe Illustrator 16.0.0, SVG Export Plug-In . SVG Version: 6.00 Build 0)  -->
<!DOCTYPE svg PUBLIC "-//W3C//DTD SVG 1.1//EN" "http://www.w3.org/Graphics/SVG/1.1/DTD/svg11.dtd">
<svg version="1.1" id="Layer_1" xmlns="http://www.w3.org/2000/svg" xmlns:xlink="http://www.w3.org/1999/xlink" x="0px" y="0px"
	 width="320px" height="165px" viewBox="0 39.5 320 165" enable-background="new 0 39.5 320 165" xml:space="preserve">
<g>
	<g>
		<path fill="#2BABE2" d="M183.088,160.6c0,4.16-3.328,7.537-7.439,7.537H9.376c-4.112,0-7.44-3.361-7.44-7.521V49.576
			c0-4.16,3.328-7.52,7.44-7.52h166.271c4.111,0,7.439,3.376,7.439,7.536V160.6H183.088z"/>
		<path fill="#FFFFFF" d="M178.256,153.352c0,4.049-3.328,7.328-7.439,7.328H14.576c-4.112,0-7.44-3.279-7.44-7.328V55.128
			c0-4.048,3.328-7.328,7.44-7.328H170.8c4.112,0,7.44,3.28,7.44,7.328v98.224H178.256z"/>
		<ellipse fill="#FFFFFF" cx="165.664" cy="164.504" rx="1.182" ry="1.584"/>
		<g>
			<rect x="72.464" y="166.632" fill="#2BABE2" width="40.352" height="31.248"/>
			<path fill="#2BABE2" d="M59.264,203.464h66.4v-3.168c0,0,2.048-1.12-12.832-5.2H72.464c0,0-13.2,2.416-13.2,5.393V203.464z"/>
		</g>
		<rect x="83.76" y="162.92" fill="#FFFFFF" width="17.664" height="1.855"/>
	</g>
	<g>
		<path fill="#2BABE2" d="M270.191,196.023c0,4.113-3.328,7.44-7.438,7.44h-65.475c-4.109,0-7.438-3.327-7.438-7.44V102.04
			c0-4.112,3.328-7.44,7.438-7.44h65.475c4.11,0,7.438,3.328,7.438,7.44V196.023L270.191,196.023z"/>
		<rect x="194.928" y="99.064" fill="#FFFFFF" width="70.175" height="95.472"/>
		<ellipse fill="#FFFFFF" cx="230.384" cy="198.744" rx="2.353" ry="2.977"/>
	</g>
	<g>
		<path fill="#2BABE2" d="M306.047,154.104h-26.591c-1.216,0-2.21,0.992-2.21,2.209v17.824v9.295v17.824
			c0,1.217,0.994,2.208,2.21,2.208h26.591c1.217,0,2.209-0.991,2.209-2.208v-17.824v-9.295v-17.824
			C308.256,155.096,307.264,154.104,306.047,154.104z"/>
		<rect x="279.616" y="158.52" fill="#FFFFFF" width="26.288" height="40.545"/>
		<rect x="287.298" y="155.111" fill="#FFFFFF" width="11.15" height="1.361"/>
		<ellipse fill="#FFFFFF" cx="292.754" cy="201.048" rx="1.359" ry="1.296"/>
	</g>
	<g>
		<rect x="23.136" y="59.784" fill="#8D8D8D" width="26.032" height="14.88"/>
		<rect x="152.336" y="59.784" fill="#8D8D8D" width="12.864" height="9.92"/>
		<rect x="23.136" y="88.92" fill="#8D8D8D" width="142.096" height="7.44"/>
		<rect x="23.136" y="99.336" fill="#8D8D8D" width="142.096" height="7.44"/>
		<rect x="23.136" y="144.952" fill="#8D8D8D" width="142.096" height="7.44"/>
		<rect x="23.136" y="121.56" fill="#B6B6B7" width="45.376" height="19.536"/>
		<rect x="71.472" y="121.56" fill="#B6B6B7" width="45.376" height="19.536"/>
		<rect x="119.824" y="121.56" fill="#B6B6B7" width="45.376" height="19.536"/>
		<rect x="23.136" y="111.608" fill="#B6B6B7" width="45.376" height="7.44"/>
		<rect x="71.472" y="111.608" fill="#B6B6B7" width="45.376" height="7.44"/>
		<rect x="119.824" y="111.608" fill="#B6B6B7" width="45.376" height="7.44"/>
	</g>
	<g>
		<rect x="200.656" y="101.704" fill="#8D8D8D" width="16.527" height="11.488"/>
		<rect x="251.872" y="101.704" fill="#8D8D8D" width="8.16" height="7.488"/>
		<rect x="200.656" y="125.128" fill="#8D8D8D" width="59.391" height="7.744"/>
		<rect x="200.656" y="135.96" fill="#8D8D8D" width="59.391" height="7.744"/>
		<rect x="200.656" y="183.447" fill="#8D8D8D" width="59.391" height="7.744"/>
		<rect x="200.656" y="159.096" fill="#B6B6B7" width="28.8" height="20.32"/>
		<rect x="231.328" y="159.096" fill="#B6B6B7" width="28.8" height="20.32"/>
		<rect x="200.656" y="148.744" fill="#B6B6B7" width="28.8" height="7.744"/>
		<rect x="231.328" y="148.744" fill="#B6B6B7" width="28.8" height="7.744"/>
	</g>
	<g>
		<rect x="288.48" y="161.08" fill="#8D8D8D" width="8.256" height="3.104"/>
		<rect x="300.863" y="161.08" fill="#8D8D8D" width="3.439" height="3.104"/>
		<rect x="280.832" y="172.168" fill="#B6B6B7" width="23.554" height="12.768"/>
		<rect x="280.88" y="166.775" fill="#B6B6B7" width="23.474" height="3.873"/>
		<rect x="280.88" y="186.616" fill="#8D8D8D" width="23.474" height="4.688"/>
		<rect x="280.88" y="192.824" fill="#8D8D8D" width="23.474" height="4.688"/>
	</g>
</g>
</svg>
