<?xml version="1.0" encoding="utf-8"?>
<!-- Generator: Adobe Illustrator 16.0.0, SVG Export Plug-In . SVG Version: 6.00 Build 0)  -->
<!DOCTYPE svg PUBLIC "-//W3C//DTD SVG 1.1//EN" "http://www.w3.org/Graphics/SVG/1.1/DTD/svg11.dtd">
<svg version="1.1" id="Layer_1" xmlns="http://www.w3.org/2000/svg" xmlns:xlink="http://www.w3.org/1999/xlink" x="0px" y="0px"
	  viewBox="0 0 200 106.5" enable-background="new 0 0 200 106.5" xml:space="preserve">
<g>
	<g>
		<path fill="#2BABE2" d="M114.43,75.5c0,2.6-2.08,4.71-4.65,4.71H5.86c-2.57,0-4.65-2.1-4.65-4.7V6.11c0-2.6,2.08-4.7,4.65-4.7
			h103.919c2.57,0,4.65,2.11,4.65,4.71V75.5z"/>
		<path fill="#FFFFFF" d="M111.41,70.97c0,2.53-2.08,4.58-4.65,4.58H9.11c-2.57,0-4.65-2.05-4.65-4.58V9.58C4.46,7.05,6.54,5,9.11,5
			h97.64c2.57,0,4.65,2.05,4.65,4.58v61.39H111.41z"/>
		<ellipse fill="#FFFFFF" cx="103.54" cy="77.94" rx="0.739" ry="0.99"/>
		<g>
			<rect x="45.29" y="79.27" fill="#2BABE2" width="25.22" height="19.53"/>
			<path fill="#2BABE2" d="M37.04,102.29h41.5v-1.98c0,0,1.28-0.7-8.02-3.25H45.29c0,0-8.25,1.51-8.25,3.37V102.29z"/>
		</g>
		<rect x="52.35" y="76.95" fill="#FFFFFF" width="11.04" height="1.16"/>
	</g>
	<g>
		<path fill="#2BABE2" d="M168.87,97.64c0,2.57-2.08,4.65-4.649,4.65H123.3c-2.569,0-4.649-2.08-4.649-4.65V38.9
			c0-2.57,2.08-4.65,4.649-4.65h40.921c2.569,0,4.649,2.08,4.649,4.65V97.64z"/>
		<rect x="121.83" y="37.04" fill="#FFFFFF" width="43.859" height="59.67"/>
		<ellipse fill="#FFFFFF" cx="143.99" cy="99.34" rx="1.47" ry="1.86"/>
	</g>
	<g>
		<path fill="#2BABE2" d="M191.279,71.44H174.66c-0.76,0-1.381,0.62-1.381,1.38v11.14v5.81v11.14c0,0.76,0.621,1.38,1.381,1.38
			h16.619c0.761,0,1.381-0.62,1.381-1.38V89.77v-5.81V72.82C192.66,72.06,192.04,71.44,191.279,71.44z"/>
		<rect x="174.76" y="74.2" fill="#FFFFFF" width="16.43" height="25.34"/>
		<rect x="179.561" y="72.07" fill="#FFFFFF" width="6.969" height="0.85"/>
		<ellipse fill="#FFFFFF" cx="182.971" cy="100.78" rx="0.85" ry="0.81"/>
	</g>
	<g>
		<rect x="14.46" y="12.49" fill="#8D8D8D" width="16.27" height="9.3"/>
		<rect x="95.21" y="12.49" fill="#8D8D8D" width="8.04" height="6.2"/>
		<rect x="14.46" y="30.7" fill="#8D8D8D" width="88.81" height="4.65"/>
		<rect x="14.46" y="37.21" fill="#8D8D8D" width="88.81" height="4.65"/>
		<rect x="14.46" y="65.72" fill="#8D8D8D" width="88.81" height="4.65"/>
		<rect x="14.46" y="51.1" fill="#B6B6B7" width="28.36" height="12.21"/>
		<rect x="44.67" y="51.1" fill="#B6B6B7" width="28.36" height="12.21"/>
		<rect x="74.89" y="51.1" fill="#B6B6B7" width="28.36" height="12.21"/>
		<rect x="14.46" y="44.88" fill="#B6B6B7" width="28.36" height="4.65"/>
		<rect x="44.67" y="44.88" fill="#B6B6B7" width="28.36" height="4.65"/>
		<rect x="74.89" y="44.88" fill="#B6B6B7" width="28.36" height="4.65"/>
	</g>
	<g>
		<rect x="125.41" y="38.69" fill="#8D8D8D" width="10.33" height="7.18"/>
		<rect x="157.42" y="38.69" fill="#8D8D8D" width="5.1" height="4.68"/>
		<rect x="125.41" y="53.33" fill="#8D8D8D" width="37.119" height="4.84"/>
		<rect x="125.41" y="60.1" fill="#8D8D8D" width="37.119" height="4.84"/>
		<rect x="125.41" y="89.78" fill="#8D8D8D" width="37.119" height="4.84"/>
		<rect x="125.41" y="74.56" fill="#B6B6B7" width="18" height="12.7"/>
		<rect x="144.58" y="74.56" fill="#B6B6B7" width="18" height="12.7"/>
		<rect x="125.41" y="68.09" fill="#B6B6B7" width="18" height="4.84"/>
		<rect x="144.58" y="68.09" fill="#B6B6B7" width="18" height="4.84"/>
	</g>
	<g>
		<rect x="180.3" y="75.8" fill="#8D8D8D" width="5.16" height="1.94"/>
		<rect x="188.04" y="75.8" fill="#8D8D8D" width="2.149" height="1.94"/>
		<rect x="175.52" y="82.73" fill="#B6B6B7" width="14.721" height="7.98"/>
		<rect x="175.55" y="79.36" fill="#B6B6B7" width="14.671" height="2.42"/>
		<rect x="175.55" y="91.76" fill="#8D8D8D" width="14.671" height="2.93"/>
		<rect x="175.55" y="95.64" fill="#8D8D8D" width="14.671" height="2.93"/>
	</g>
</g>
</svg>
