<svg xmlns="http://www.w3.org/2000/svg" xmlns:xlink="http://www.w3.org/1999/xlink" version="1.1" id="Layer_1" x="0px" y="0px" viewBox="0 0 176.984 42.063" enable-background="new 0 0 176.984 42.063" xml:space="preserve">
<g>
	<g>
		<g>
			<path fill="#EC0044" d="M35.438 17.9"/>
			<path fill="#EC0044" d="M41.799 25.3"/>
			<g>
				<path fill="#00AEEF" d="M34.534 17.832c-1.001 0.974-1.788 2.122-2.335 3.417l1.567 0.663c0.459-1.082 1.115-2.045 1.954-2.861 c2.52-2.446 6.241-3.142 9.482-1.77c4.427 1.9 6.5 7 4.6 11.432l1.566 0.663c2.239-5.295-0.244-11.423-5.536-13.663 C41.993 14.1 37.5 14.9 34.5 17.832z"/>
				<path fill="#FF4D4D" d="M52.808 18.472l-1.448 0.887c1.867 3 2.3 6.8 0.8 10.347c-0.341 0.807-0.773 1.568-1.285 2.3 c-3.097 4.24-8.645 5.771-13.491 3.721c-5.726-2.425-8.416-9.053-5.993-14.775c0.591-1.398 1.442-2.644 2.526-3.7 c1.518-1.472 3.379-2.434 5.352-2.882l-0.375-1.675c-2.273 0.516-4.413 1.64-6.162 3.339c-1.248 1.214-2.227 2.647-2.907 4.3 c-2.789 6.6 0.3 14.2 6.9 17.005c5.576 2.4 12 0.6 15.528-4.282c0.586-0.803 1.083-1.679 1.476-2.607 C55.453 26.3 55 21.9 52.8 18.472z"/>
			</g>
		</g>
		<g>
			<path fill="#231F20" d="M23.164 18.589c0-2.056-3.574-3.035-5.629-3.035c-5.287 0-9.545 3.964-9.545 9.9 c0 6.1 4.5 9.8 9.6 9.84c5.042 0 7.929-3.476 7.929-3.476l1.567 2.496c0 0-3.329 4.015-9.644 4 c-7.342 0-12.922-5.237-12.922-12.875c0-7.538 5.63-12.923 12.972-12.923c2.79 0 8.8 1.2 8.8 5.238L23.164 18.589z"/>
		</g>
		<path fill="#231F20" d="M143.57 18.589c0-2.056-3.574-3.035-5.631-3.035c-5.286 0-9.546 3.964-9.546 9.9 c0 6.1 4.5 9.8 9.6 9.84c5.042 0 7.929-3.476 7.929-3.476l1.568 2.496c0 0-3.331 4.015-9.644 4 c-7.342 0-12.924-5.237-12.924-12.875c0-7.538 5.629-12.923 12.972-12.923c2.79 0 8.8 1.2 8.8 5.238L143.57 18.589z"/>
		<path fill="#231F20" d="M151.834 16.729c0-3.426 5.875-4.163 8.027-4.163c7.784 0 9.6 4.2 9.6 9.449v11.797 c0 0.7 0.4 1.1 1.1 1.076h2.057v2.889h-3.379c-2.104 0-2.938-0.931-2.938-2.937c0-1.077 0.05-1.812 0.05-1.812h-0.098 c0.048 0-2.009 5.336-8.174 5.336c-4.112 0-8.372-2.399-8.372-7.294c0-8.175 10.818-8.469 15.077-8.469h1.372v-0.294 c0-5.139-1.86-6.949-6.364-6.949c-1.225 0-4.799 0.342-4.799 2.153L151.834 16.729z M158.638 35.5 c4.698 0 7.54-4.895 7.54-9.153v-1.126h-1.42c-3.866 0-11.602 0.098-11.602 5.628C153.156 33.2 155 35.5 158.6 35.524z"/>
		<g>
			<rect x="115.2" y="3.4" width="3.3" height="3.5"/>
			<path d="M119.633 34.888c-0.688 0-1.078-0.342-1.078-1.076V17.282v-1.142v-2.987h-2.986h-0.342v3.965v0.164v17.507 c0 2.1 0.9 3 3 2.987h3.476v-2.889H119.633z"/>
		</g>
		<g>
			<path fill="none" d="M68.739 15.554c-4.358 0-7.93 3.671-7.93 9.887c0 6.1 3.2 9.9 7.8 9.9 c4.111 0 7.979-2.937 7.979-9.937C76.57 20.4 74 15.6 68.7 15.554z"/>
			<path d="M80.879 34.888c-0.686 0-1.077-0.342-1.077-1.076V7.761V6.351V3.364h-2.988h-0.34v3.966v0.431v7.547 c0 1 0.1 1.9 0.1 1.86h-0.097c0 0-2.057-4.603-8.028-4.603c-6.461 0-11.063 5.092-11.063 12.9 c0 7.6 4.1 12.9 10.7 12.924c6.461 0 8.469-4.895 8.469-4.895h0.098c0 0-0.098 0.635-0.098 1.6 c0 1.8 0.9 2.7 2.9 2.741h3.427v-2.889H80.879z M68.591 35.377c-4.602 0-7.782-3.867-7.782-9.937 c0-6.215 3.571-9.887 7.93-9.887c5.285 0 7.8 4.9 7.8 9.887C76.57 32.4 72.7 35.4 68.6 35.377z"/>
		</g>
		<g>
			<path fill="none" d="M96.438 15.554c-4.36 0-7.931 3.671-7.931 9.887c0 6.1 3.2 9.9 7.8 9.9 c4.111 0 7.979-2.937 7.979-9.937C104.27 20.4 101.7 15.6 96.4 15.554z"/>
			<path d="M108.578 34.888c-0.687 0-1.077-0.342-1.077-1.076V7.761V6.351V3.364h-2.989h-0.339v3.966v0.431v7.547 c0 1 0.1 1.9 0.1 1.86h-0.097c0 0-2.058-4.603-8.029-4.603c-6.461 0-11.063 5.092-11.063 12.9 c0 7.6 4.1 12.9 10.7 12.924c6.462 0 8.47-4.895 8.47-4.895h0.098c0 0-0.098 0.635-0.098 1.6 c0 1.8 0.9 2.7 2.9 2.741h3.426v-2.889H108.578z M96.29 35.377c-4.602 0-7.782-3.867-7.782-9.937 c0-6.215 3.57-9.887 7.931-9.887c5.284 0 7.8 4.9 7.8 9.887C104.27 32.4 100.4 35.4 96.3 35.377z"/>
		</g>
	</g>
</g>
</svg>
