<?xml version="1.0" encoding="utf-8"?>
<!-- Generator: Adobe Illustrator 16.0.0, SVG Export Plug-In . SVG Version: 6.00 Build 0)  -->
<!DOCTYPE svg PUBLIC "-//W3C//DTD SVG 1.1//EN" "http://www.w3.org/Graphics/SVG/1.1/DTD/svg11.dtd">
<svg version="1.1" id="Layer_1" xmlns="http://www.w3.org/2000/svg" xmlns:xlink="http://www.w3.org/1999/xlink" x="0px" y="0px"
	 width="320px" height="68px" viewBox="0 89.5 320 68" enable-background="new 0 89.5 320 68" xml:space="preserve">
<path fill="#00AEEF" d="M59.243,118.449c-1.891,1.838-3.375,4.009-4.409,6.452l2.959,1.25c0.867-2.041,2.106-3.859,3.688-5.399
	c4.757-4.618,11.784-5.933,17.903-3.343c8.36,3.538,12.284,13.22,8.745,21.585l2.957,1.252c4.228-9.997-0.46-21.566-10.451-25.795
	C73.328,111.357,64.931,112.927,59.243,118.449z"/>
<path fill="#E41C3D" d="M93.748,119.66l-2.734,1.676c3.526,5.684,4.352,12.926,1.555,19.535c-0.644,1.521-1.46,2.96-2.426,4.279
	c-5.847,8.006-16.323,10.895-25.472,7.023c-10.812-4.578-15.89-17.091-11.315-27.897c1.116-2.638,2.722-4.992,4.77-6.985
	c2.866-2.78,6.38-4.595,10.104-5.441l-0.708-3.162c-4.292,0.974-8.332,3.097-11.635,6.306c-2.355,2.291-4.205,4.998-5.488,8.028
	c-5.266,12.44,0.577,26.845,13.021,32.107c10.529,4.459,22.582,1.129,29.32-8.084c1.106-1.517,2.045-3.172,2.786-4.924
	C98.741,134.521,97.798,126.191,93.748,119.66z"/>
<g>
	<path d="M37.775,119.88c0-3.881-6.749-5.731-10.629-5.731c-9.981,0-18.021,7.486-18.021,18.761c0,11.46,8.41,18.576,18.208,18.576
		c9.52,0,14.971-6.561,14.971-6.561l2.958,4.713c0,0-6.284,7.579-18.208,7.579c-13.862,0-24.398-9.888-24.398-24.309
		c0-14.232,10.629-24.401,24.492-24.401c5.269,0,16.543,2.221,16.543,9.891L37.775,119.88z"/>
</g>
<path d="M265.116,119.88c0-3.881-6.749-5.731-10.632-5.731c-9.98,0-18.023,7.486-18.023,18.761c0,11.46,8.412,18.576,18.21,18.576
	c9.521,0,14.97-6.561,14.97-6.561l2.963,4.713c0,0-6.291,7.579-18.209,7.579c-13.861,0-24.401-9.888-24.401-24.309
	c0-14.232,10.629-24.401,24.491-24.401c5.269,0,16.545,2.221,16.545,9.891L265.116,119.88z"/>
<path d="M280.721,116.367c0-6.468,11.092-7.859,15.155-7.859c14.696,0,18.204,7.859,18.204,17.84v22.275
	c0,1.385,0.743,2.031,2.037,2.031H320v5.453h-6.38c-3.972,0-5.546-1.756-5.546-5.545c0-2.033,0.095-3.418,0.095-3.418h-0.185
	c0.09,0-3.793,10.072-15.434,10.072c-7.766,0-15.808-4.529-15.808-13.771c0-15.436,20.426-15.989,28.467-15.989h2.59V126.9
	c0-9.704-3.513-13.121-12.017-13.121c-2.313,0-9.059,0.645-9.059,4.064L280.721,116.367z M293.564,151.855
	c8.871,0,14.235-9.242,14.235-17.281v-2.127h-2.681c-7.301,0-21.904,0.187-21.904,10.628
	C283.216,147.42,286.634,151.855,293.564,151.855z"/>
<g>
	<rect x="211.602" y="91.167" width="6.283" height="6.572"/>
	<path d="M219.919,150.654c-1.298,0-2.034-0.646-2.034-2.031v-31.21v-2.156v-5.638h-5.64H211.6v7.486v0.309v33.057
		c0,3.973,1.666,5.639,5.639,5.639h6.562v-5.453h-3.881V150.654z"/>
</g>
<path d="M146.748,150.654c-1.295,0-2.034-0.646-2.034-2.031V99.436v-2.664v-5.639h-5.642h-0.643v7.488v0.814v14.251
	c0,1.938,0.184,3.51,0.184,3.51h-0.184c0,0-3.884-8.689-15.158-8.689c-12.199,0-20.888,9.615-20.888,24.31
	c0,14.42,7.764,24.4,20.239,24.4c12.199,0,15.991-9.24,15.991-9.24h0.184c0,0-0.184,1.197-0.184,2.955
	c0,3.42,1.663,5.176,5.544,5.176h6.471v-5.453H146.748z M123.547,151.579c-8.688,0-14.693-7.304-14.693-18.763
	c0-11.736,6.744-18.668,14.973-18.668c9.979,0,14.787,9.241,14.787,18.668C138.613,146.034,131.309,151.579,123.547,151.579z"/>
<path d="M199.047,150.654c-1.296,0-2.033-0.646-2.033-2.031V99.436v-2.664v-5.639h-5.644h-0.642v7.488v0.814v14.251
	c0,1.938,0.183,3.51,0.183,3.51h-0.183c0,0-3.885-8.689-15.16-8.689c-12.197,0-20.886,9.615-20.886,24.31
	c0,14.42,7.765,24.4,20.238,24.4c12.201,0,15.991-9.24,15.991-9.24h0.185c0,0-0.185,1.197-0.185,2.955
	c0,3.42,1.665,5.176,5.546,5.176h6.468v-5.453H199.047z M175.846,151.579c-8.688,0-14.693-7.304-14.693-18.763
	c0-11.736,6.742-18.668,14.975-18.668c9.977,0,14.785,9.241,14.785,18.668C190.911,146.034,183.607,151.579,175.846,151.579z"/>
</svg>
