<?xml version="1.0" encoding="utf-8"?>
<!-- Generator: Adobe Illustrator 16.0.0, SVG Export Plug-In . SVG Version: 6.00 Build 0)  -->
<!DOCTYPE svg PUBLIC "-//W3C//DTD SVG 1.1//EN" "http://www.w3.org/Graphics/SVG/1.1/DTD/svg11.dtd">
<svg version="1.1" id="Layer_1" xmlns="http://www.w3.org/2000/svg" xmlns:xlink="http://www.w3.org/1999/xlink" x="0px" y="0px" viewBox="0 0 320 250" enable-background="new 0 0 320 250" xml:space="preserve">
<path id="path5" fill="#EC0044" d="M64.903,134.691"/>
<path id="path7" fill="#EC0044" d="M76.404,148.072"/>
<path id="path9" fill="#00AEEF" d="M63.268,134.568c-1.81,1.763-3.233,3.836-4.222,6.179l2.833,1.198
	c0.83-1.954,2.016-3.696,3.533-5.172c4.556-4.424,11.284-5.683,17.144-3.201c8.004,3.437,11.752,12.656,8.317,20.671l2.831,1.198
	c4.048-9.573-0.441-20.653-10.009-24.705c-6.941-2.918-15.065-1.471-20.489,3.832H63.268L63.268,134.568z"/>
<path id="path11" fill="#FF4D4D" d="M96.309,135.727l-2.618,1.604c3.375,5.424,4.158,12.295,1.446,18.707
	c-0.617,1.459-1.397,2.836-2.323,4.157c-5.6,7.666-15.631,10.437-24.393,6.729c-10.353-4.384-15.216-16.365-10.835-26.712
	c1.068-2.528,2.607-4.78,4.567-6.69c2.745-2.66,6.11-4.399,9.677-5.211l-0.678-3.026c-4.11,0.934-7.979,2.965-11.142,6.036
	c-2.256,2.195-4.026,4.787-5.256,7.773c-5.042,11.934,0.542,25.676,12.476,30.747c10.082,4.339,21.697,1.084,28.076-7.741
	c1.06-1.453,1.958-3.037,2.669-4.716c3.117-7.504,2.298-15.459-1.68-21.655L96.309,135.727L96.309,135.727z"/>
<g id="g13">
	<path id="path15" fill="#231F20" d="M42.71,135.938c0-3.719-6.462-5.486-10.178-5.486c-9.559,0-17.258,7.168-17.258,17.898
		c0,11.028,8.137,17.719,17.358,17.791c9.116,0,14.336-6.283,14.336-6.283l2.833,4.514c0,0-6.019,7.26-17.437,7.23
		C19.089,171.602,9,162.132,9,148.322c0-13.629,10.18-23.363,23.455-23.363c5.044,0,15.911,2.17,15.911,9.475L42.71,135.938z"/>
</g>
<path id="path17" fill="#231F20" d="M260.413,135.938c0-3.719-6.462-5.486-10.181-5.486c-9.559,0-17.26,7.168-17.26,17.898
	c0,11.028,8.135,17.719,17.354,17.791c9.113,0,14.336-6.283,14.336-6.283l2.835,4.514c0,0-6.021,7.26-17.438,7.23
	c-13.271,0-23.363-9.47-23.363-23.279c0-13.629,10.178-23.363,23.449-23.363c5.047,0,15.912,2.17,15.912,9.475L260.413,135.938z"/>
<path id="path19" fill="#231F20" d="M275.355,132.575c0-6.193,10.621-7.527,14.514-7.527c14.073,0,17.357,7.597,17.357,17.084v21.33
	c0,1.267,0.723,1.99,1.988,1.944h3.719v5.226h-6.109c-3.805,0-5.313-1.685-5.313-5.312c0-1.946,0.092-3.276,0.092-3.276h-0.178
	c0.086,0-3.639,9.647-14.779,9.647c-7.438,0-15.137-4.338-15.137-13.188c0-14.778,19.56-15.313,27.26-15.313h2.479v-0.529
	c0-9.291-3.361-12.563-11.506-12.563c-2.215,0-8.68,0.617-8.68,3.896L275.355,132.575z M287.657,166.516
	c8.494,0,13.633-8.853,13.633-16.55v-2.036h-2.567c-6.984,0-20.978,0.178-20.978,10.178c0.001,4.25,3.335,8.408,9.843,8.451
	L287.657,166.516z"/>
<g id="g21">
	<rect id="rect23" x="209.118" y="108.477" width="5.967" height="6.328"/>
	<path id="path25" d="M217.133,165.409c-1.244,0-1.949-0.619-1.949-1.947v-29.887v-2.063v-5.4h-5.396h-0.618v7.173v0.297v31.651
		c0,3.797,1.629,5.424,5.428,5.396h6.281v-5.226h-3.74v0.007H217.133L217.133,165.409z"/>
</g>
<path id="path27" fill="none" d="M125.113,130.45c-7.879,0-14.338,6.639-14.338,17.877c0,11.028,5.786,17.897,14.103,17.897
	c7.433,0,14.426-5.313,14.426-17.969c-0.032-9.047-4.679-17.727-14.262-17.809L125.113,130.45L125.113,130.45z"/>
<path id="path29" d="M147.063,165.409c-1.241,0-1.947-0.619-1.947-1.947v-47.103v-2.548v-5.4h-5.403h-0.615v7.17v0.778v13.646
	c0,1.81,0.181,3.437,0.181,3.363h-0.175c0,0-3.719-8.324-14.515-8.324c-11.682,0-20.002,9.207-20.002,23.324
	c0,13.741,7.413,23.323,19.346,23.366c11.682,0,15.313-8.854,15.313-8.854h0.177c0,0-0.177,1.146-0.177,2.896
	c0,3.258,1.627,4.885,5.244,4.955h6.196v-5.228h-3.622L147.063,165.409L147.063,165.409z M124.846,166.292
	c-8.321,0-14.07-6.992-14.07-17.967c0-11.236,6.457-17.875,14.338-17.875c9.556,0,14.103,8.858,14.103,17.875
	c0.056,12.584-6.941,18.01-14.354,17.967H124.846z"/>
<g id="g31">
	<path id="path33" fill="none" d="M175.195,130.45c-7.883,0-14.34,6.639-14.34,17.877c0,11.028,5.785,17.897,14.103,17.897
		c7.433,0,14.427-5.313,14.427-17.969c-0.029-9.047-4.676-17.727-14.258-17.809L175.195,130.45L175.195,130.45z"/>
	<path id="path35" d="M197.145,165.409c-1.242,0-1.947-0.619-1.947-1.947v-47.103v-2.548v-5.4h-5.404h-0.611v7.17v0.778v13.646
		c0,1.81,0.186,3.437,0.186,3.363h-0.182c0,0-3.721-8.324-14.517-8.324c-11.683,0-20.003,9.207-20.003,23.324
		c0,13.741,7.413,23.323,19.348,23.366c11.688,0,15.313-8.854,15.313-8.854h0.177c0,0-0.177,1.146-0.177,2.896
		c0,3.258,1.627,4.885,5.243,4.955h6.193v-5.228h-3.619V165.409L197.145,165.409z M174.928,166.292
		c-8.32,0-14.07-6.992-14.07-17.967c0-11.236,6.455-17.875,14.34-17.875c9.554,0,14.104,8.858,14.104,17.875
		c0.055,12.584-6.938,18.01-14.354,17.967H174.928z"/>
</g>
</svg>
